<?xml version="1.0" encoding="utf-8"?>
<!-- Generator: Adobe Illustrator 28.2.0, SVG Export Plug-In . SVG Version: 6.00 Build 0)  -->
<svg version="1.1" id="Layer_1" xmlns="http://www.w3.org/2000/svg" xmlns:xlink="http://www.w3.org/1999/xlink" x="0px" y="0px"
	 viewBox="0 0 255.9 256" style="enable-background:new 0 0 255.9 256;" xml:space="preserve">
<style type="text/css">
	.st0{fill:#FFFFFE;}
	.st1{fill:#820D40;}
	.st2{fill:#E18E38;}
	.st3{fill:#F18C26;}
</style>
<path class="st0" d="M255.9,129c0,20.7,0,41.4-0.4,62.3c-5.7,0.1-11-0.2-16.3-0.2c-17.2-0.1-17.2,0-17.2,17c0,4.9,0,9.8,0,14.6
	c-63.2,0-125.6,0-187.8,0c0-62.8,0-125.1,0-187.8c6.1,0,11.8,0,17.4,0c15.8,0,14.2,1.8,14.1-14.1c0-6.6-0.5-13.2-0.8-19.8
	c20.7,0,41.4,0,62.5,0.3c1.1,1.5,1.5,3,2.4,3.9c13.4,13.6,27,27.1,40.4,40.6c1.3,1.3,2.5,2.8,3.4,4.3c-0.4,0.3-0.6,0.6-0.8,0.9
	c0,0,0,0-0.3,0c-0.4,0.4-0.6,0.7-0.7,1c0,0,0,0-0.3,0.1c-0.8,0.7-1.2,1.3-1.7,1.9c0,0,0,0-0.3,0c-0.4,0.4-0.6,0.7-0.7,1
	c0,0,0,0-0.3,0.1c-0.8,0.7-1.2,1.3-1.9,2c-0.5,0.2-0.7,0.5-1.1,0.9c-0.5,0.4-0.6,0.7-1,1.1c-0.5,0.3-0.6,0.6-0.9,1
	c-0.8,0.7-1.3,1.3-1.8,1.9c0,0,0,0-0.3,0c-0.4,0.4-0.6,0.7-0.7,1c0,0,0,0-0.3,0.1c-0.8,0.7-1.3,1.3-2,2c-0.5,0.2-0.7,0.5-1,0.9
	c-0.5,0.4-0.6,0.7-1,1.1c-0.5,0.3-0.6,0.5-0.9,0.9c-0.4,0.4-0.6,0.7-0.8,1c0,0,0,0-0.3,0c-0.4,0.3-0.6,0.7-0.7,1c0,0,0,0-0.3,0
	c-0.4,0.4-0.6,0.7-0.7,1c0,0,0,0-0.3,0c-0.4,0.4-0.6,0.7-0.7,1c0,0,0,0-0.3,0.1c-0.4,0.4-0.6,0.7-1,1c-0.5,0.3-0.7,0.5-1,0.9
	c-0.4,0.4-0.6,0.7-0.7,1c0,0,0,0-0.3,0.1c-1.1,1-1.9,2-2.7,2.9c0,0,0,0-0.3,0c-0.4,0.4-0.6,0.7-1,1.1c-0.5,0.3-0.6,0.6-0.9,1
	c-0.4,0.4-0.6,0.7-1,1.1c-0.5,0.2-0.7,0.5-1.1,0.9c-0.4,0.4-0.6,0.7-1,1.1c-0.5,0.3-0.6,0.6-1,0.9c-0.4,0.4-0.6,0.7-0.8,1
	c0,0,0,0-0.3,0.1c-1.1,1-1.9,2-2.7,2.9c0,0,0,0-0.3,0.1c-0.4,0.4-0.6,0.7-1,1c-0.5,0.3-0.7,0.5-1.1,0.9c-0.4,0.4-0.6,0.7-1,1.1
	c-0.5,0.3-0.6,0.6-1,1s-0.6,0.6-0.8,0.9c0,0,0,0-0.3,0c-0.4,0.3-0.6,0.6-0.7,1c0,0,0,0-0.3,0c-0.4,0.4-0.6,0.7-0.7,1c0,0,0,0-0.3,0
	c-0.4,0.4-0.6,0.7-0.7,1c0,0,0,0-0.3,0.1c-0.8,0.7-1.3,1.3-1.7,1.9c0,0,0,0-0.3,0c-0.4,0.4-0.6,0.7-0.7,1c0,0,0,0-0.3,0
	c-0.8,0.7-1.3,1.3-2,2c-0.5,0.2-0.7,0.5-1,0.9c-0.5,0.4-0.7,0.7-1,1.1c-0.4,0.3-0.6,0.6-0.9,1c-0.4,0.4-0.6,0.7-1,1.1
	c-0.5,0.3-0.7,0.5-1,0.9c-0.4,0.4-0.6,0.7-0.7,1c0,0,0,0-0.3,0.1c-0.8,0.7-1.3,1.3-2,2c-0.5,0.2-0.7,0.5-1,0.9
	c-0.5,0.4-0.6,0.7-1,1.1c-0.4,0.3-0.6,0.6-0.9,1c-0.4,0.4-0.6,0.7-1,1.1c-0.5,0.2-0.7,0.5-1,0.9c-0.4,0.4-0.6,0.7-0.7,1
	c0,0,0,0-0.3,0.1c-1.1,1-1.9,2-2.7,2.9c0,0,0,0-0.3,0c-0.5,0.4-0.6,0.7-1,1.1c-0.4,0.3-0.6,0.6-0.9,1c-0.4,0.4-0.6,0.7-1,1.1
	c-0.5,0.3-0.7,0.5-1.1,0.9s-0.6,0.7-0.7,1c0,0,0,0-0.3,0.1c-1.6,1.5-2.8,2.8-4.2,4.2c-0.1,0.1-0.2,0.3-0.4,0.4c0,1,0.2,1.8,0.4,2.7
	c0,0,0.1,0.2,0.2,0.4c0.6,0.7,1.2,1.1,1.8,1.6c0.1,0,0.1,0.1,0.2,0.4c1.5,1.6,2.9,2.8,4.3,4.1c0,0,0,0,0.1,0.3
	c0.5,0.6,0.9,0.9,1.4,1.2c0.1,0,0.1,0.1,0.2,0.4c0.6,0.7,1.2,1.1,1.8,1.6c0.1,0,0.1,0.1,0.2,0.4c0.6,0.7,1.2,1.1,1.8,1.6
	c0.1,0,0.1,0.1,0.2,0.4c0.9,0.9,1.6,1.5,2.3,2.1c0,0,0,0,0.1,0.2c0.3,0.4,0.6,0.6,0.9,0.7c0,0,0,0,0.1,0.3c0.8,0.9,1.6,1.5,2.3,2.2
	c0.1,0,0.1,0.1,0.2,0.4c0.6,0.7,1.2,1.1,1.8,1.6c0.1,0,0.1,0.2,0.2,0.4c0.9,0.9,1.6,1.5,2.4,2.1c0,0,0,0,0.1,0.2
	c0.3,0.4,0.6,0.6,0.9,0.8c0,0,0,0,0.1,0.3c1.5,1.6,2.9,2.9,4.4,4.2c0.1,0,0.1,0.1,0.2,0.4c0.6,0.7,1.2,1.1,1.8,1.6
	c0.1,0,0.2,0.1,0.3,0.4c1,0.1,1.8-0.1,2.7-0.3c0,0,0.2-0.1,0.4-0.2c0.7-0.6,1.1-1.2,1.6-1.8c0-0.1,0.1-0.1,0.4-0.2
	c0.7-0.6,1.1-1.2,1.6-1.8c0-0.1,0.1-0.1,0.4-0.2c0.7-0.6,1.1-1.2,1.6-1.8c0-0.1,0.1-0.1,0.4-0.2c0.7-0.7,1.2-1.2,1.6-1.8
	c0-0.1,0.1-0.1,0.4-0.2c0.7-0.6,1.1-1.2,1.6-1.8c0-0.1,0.1-0.1,0.4-0.2c0.7-0.6,1.1-1.2,1.6-1.8c0-0.1,0.1-0.1,0.4-0.2
	c0.9-0.8,1.5-1.6,2.1-2.3c0,0,0,0,0.3-0.1c0.4-0.3,0.6-0.6,0.7-0.9c0,0,0,0,0.3-0.1c0.9-0.8,1.5-1.6,2.2-2.4c0-0.1,0.1-0.1,0.4-0.2
	c0.7-0.6,1.1-1.2,1.6-1.8c0-0.1,0.2-0.1,0.4-0.2c0.9-0.8,1.5-1.6,2.1-2.3c0,0,0,0,0.3-0.1c0.4-0.4,0.6-0.6,0.7-0.9c0,0,0,0,0.3-0.1
	c0.9-0.8,1.5-1.6,2.2-2.4c0-0.1,0.1-0.1,0.4-0.2c0.7-0.6,1.1-1.2,1.6-1.8c0-0.1,0.1-0.1,0.4-0.2c0.9-0.8,1.5-1.6,2.1-2.3
	c0,0,0,0,0.3-0.1c0.4-0.4,0.6-0.6,0.7-0.9c0,0,0,0,0.3-0.1c0.9-0.8,1.5-1.6,2.2-2.4c0-0.1,0.1-0.1,0.4-0.2c0.7-0.6,1.1-1.2,1.6-1.8
	c0-0.1,0.1-0.1,0.4-0.2c0.9-0.8,1.5-1.6,2.1-2.3c0,0,0,0,0.3-0.1c0.4-0.4,0.6-0.6,0.7-0.9c0,0,0,0,0.3-0.1c0.9-0.8,1.5-1.6,2.2-2.4
	c0-0.1,0.1-0.1,0.4-0.2c0.7-0.6,1.1-1.2,1.6-1.8c0-0.1,0.2-0.1,0.4-0.2c0.9-0.9,1.5-1.6,2.1-2.4c0,0,0,0,0.2-0.1
	c0.4-0.3,0.6-0.6,0.8-0.9c0,0,0,0,0.3-0.1c0.9-0.8,1.5-1.5,2.2-2.3c0.1-0.1,0.2-0.2,0.5-0.3c1.5-1.5,2.8-2.9,4-4.3c0,0,0,0,0.3-0.1
	c0.4-0.4,0.6-0.6,0.7-0.9c0,0,0,0,0.3-0.1c1.6-1.5,2.8-2.9,4.1-4.3c0.1-0.1,0.2-0.2,0.4-0.3c0.9-0.8,1.5-1.6,2.1-2.3
	c0,0,0,0,0.3-0.1c0.4-0.4,0.6-0.7,0.7-0.9c0,0,0,0,0.3-0.1c2.3-2.1,4.2-4.2,6.2-6.3c0.1-0.1,0.2-0.2,0.4-0.3
	c0.7-0.7,1.1-1.2,1.6-1.8c0,0,0.1-0.1,0.4-0.2c1.4-1.3,2.5-2.5,3.6-3.7c0.1-0.1,0.2-0.2,0.5-0.3c0.6-0.4,0.8-0.7,1.4-0.9
	c1.2,0.8,2.1,1.4,3,2.1c0.1,0,0.1,0.2,0.3,0.4c0.5,0.5,1,0.8,1.4,1.1c0,0,0,0,0.1,0.3c0.7,0.8,1.3,1.2,1.9,1.7c0,0,0,0,0.1,0.3
	c0.5,0.6,0.9,0.9,1.4,1.2c0.1,0,0,0.1,0.2,0.4c1,1.1,1.8,1.8,2.8,2.7c0.1,0.1,0.2,0.2,0.3,0.3c0.2,0.4,0.4,0.5,0.7,0.6
	c0.1,0.1,0.1,0.2,0.3,0.4c0.5,0.5,1,0.8,1.4,1.1c0,0,0,0,0.1,0.3c0.7,0.8,1.3,1.2,1.9,1.7c0,0,0,0,0.1,0.3c0.7,0.8,1.3,1.3,1.9,1.7
	c0,0,0,0,0,0.3c0.7,0.8,1.3,1.3,1.9,1.7c0,0,0,0,0,0.3c0.7,0.7,1.4,1.2,2,1.6c0,0,0,0,0.1,0.3c0.7,0.8,1.3,1.2,1.9,1.7
	c0,0,0,0,0.1,0.3c0.6,0.7,1.1,1,1.7,1.5c0.2,0.3,0.4,0.5,0.7,0.8c0.6,0.7,1.1,1,1.6,1.4c0,0,0,0,0.1,0.3c2.4,2.4,4.7,4.5,6.9,6.6
	c0,0,0,0,0.1,0.3c0.5,0.6,0.9,0.9,1.4,1.2c0.1,0,0.1,0.1,0.2,0.4c2.5,2.6,4.9,4.8,7.3,7.1c0,0,0,0,0.1,0.3
	C252.6,127.4,254.3,128.2,255.9,129z"/>
<path class="st1" d="M64.4,1c0.8,6.6,1.3,13.2,1.3,19.8c0.1,15.8,1.7,14-14.1,14.1c-5.7,0-11.3,0-17.4,0c0,62.7,0,125,0,187.8
	c62.2,0,124.6,0,187.8,0c0-4.7,0-9.6,0-14.6c0-17,0-17,17.2-17c5.3,0,10.6,0.3,16.3,0.7c0.4,21.8,0.4,43.5,0.4,65.2
	c-85.3,0-170.5,0-255.9,0C0,171.7,0,86.3,0,1C21.3,1,42.6,1,64.4,1z"/>
<path class="st1" d="M121.9,101.9c0.1-0.3,0.2-0.6,1.1-0.8c1-0.8,1.5-1.4,1.9-2.1c0,0,0,0,0.3,0c0.4-0.4,0.6-0.7,0.7-1
	c0,0,0,0,0.3,0c0.8-0.7,1.2-1.3,1.7-2c0,0,0,0,0.3-0.1c0.4-0.4,0.6-0.7,0.7-1c0,0,0,0.1,0.3,0c0.4-0.4,0.6-0.7,0.7-1c0,0,0,0,0.3,0
	c0.4-0.4,0.6-0.6,0.8-0.9c0,0,0,0,0.3,0c0.4-0.4,0.6-0.6,0.8-0.9c0.1-0.3,0.2-0.6,1-1c0.7-0.5,0.8-0.8,1-1.1c0.1-0.3,0.3-0.6,1-0.9
	c0.6-0.5,0.8-0.7,1-1c0,0,0,0,0.4,0c1.1-1,1.9-2,2.6-3c0,0,0,0,0.3,0c0.4-0.4,0.6-0.7,0.8-1c0.1-0.3,0.2-0.6,1-1
	c0.7-0.5,0.8-0.8,1-1.1c0.1-0.3,0.3-0.6,1-0.9c0.6-0.5,0.8-0.8,1-1.1c0.1-0.3,0.2-0.6,0.9-0.9c0.7-0.5,0.8-0.8,1-1.1c0,0,0,0,0.3,0
	c1.1-1,1.9-2,2.7-3c0,0,0,0,0.2-0.1c0.4-0.4,0.6-0.7,0.8-1c0.1-0.3,0.3-0.6,1-0.9c0.6-0.5,0.8-0.7,1-1c0,0,0,0,0.2-0.1
	c0.4-0.4,0.6-0.7,0.7-1c0,0,0,0,0.3,0c0.4-0.4,0.6-0.7,0.7-1c0,0,0,0,0.3,0c0.4-0.4,0.6-0.7,0.8-0.9c0,0,0,0,0.3,0
	c0.4-0.4,0.6-0.7,0.8-1c0.1-0.3,0.2-0.6,0.9-0.9c0.7-0.5,0.8-0.8,1-1.1c0.1-0.3,0.3-0.6,1.1-0.8c1-0.8,1.5-1.4,1.9-2.1
	c0,0,0,0,0.2-0.1c0.4-0.4,0.6-0.7,0.8-0.9c0,0,0,0,0.3,0c0.8-0.7,1.3-1.3,1.7-2c0-0.3,0.2-0.6,0.9-1c0.7-0.5,0.9-0.8,1-1.1
	s0.3-0.6,1.1-0.8c1-0.8,1.4-1.4,1.9-2.1c0,0,0,0,0.2-0.1c0.4-0.4,0.6-0.6,0.8-0.9c0,0,0,0,0.3,0c0.8-0.7,1.2-1.3,1.7-2
	c0,0,0,0,0.3-0.1c0.4-0.4,0.6-0.7,0.7-1c0,0,0,0.1,0.2,0c0.4-0.3,0.6-0.6,0.8-0.9c-1.2-1.4-2.4-2.9-3.7-4.3
	c-13.5-13.5-27-27-40.4-40.6c-0.9-0.9-1.3-2.4-1.9-3.9C170.5,1,213.1,1,255.9,1c0,41.4,0,82.7-0.4,124.5c-1.8,0.5-3.2,0.5-4.6,0.5
	c0,0,0,0,0-0.4c-0.4-4.5-3.4-7.1-7.4-7c0,0,0-0.1,0-0.4c-0.5-0.6-1-0.9-1.5-1.2c0,0,0,0,0-0.4c-1.6-3.3-2.4-7.1-7-6.6c0,0,0,0,0-0.4
	c-0.6-0.7-1.1-1-1.6-1.3c-0.2-0.1-0.4-0.2-0.6-0.9c-0.6-0.8-1.2-1.1-1.8-1.5c0,0,0,0,0-0.3c-0.7-0.8-1.3-1.2-2-1.7c0,0,0,0,0-0.3
	c-0.7-0.8-1.4-1.2-2.1-1.6c0,0,0.1-0.1,0-0.4c-0.7-0.7-1.4-1.2-2-1.7c0,0,0.1,0,0-0.3c-0.7-0.8-1.3-1.2-2-1.7c0,0,0,0,0-0.3
	c-0.7-0.8-1.3-1.2-2-1.7c0,0,0,0,0-0.3c-0.5-0.6-1-0.8-1.5-1c0,0-0.1-0.1,0-0.5c-0.3-0.4-0.6-0.4-0.9-0.5c0,0-0.1-0.1-0.1-0.5
	c-1-1.1-2-1.9-3-2.6c0,0,0-0.1,0-0.4c-0.5-0.6-1-0.9-1.6-1.2c0,0,0,0,0-0.3c-0.7-0.8-1.3-1.2-2-1.7c0,0,0,0,0-0.3
	c-0.5-0.5-1-0.8-1.5-1c0,0-0.1-0.1,0.1-0.6c0.7-3.8-1.8-2.9-3.9-3c-0.6,0.8-0.8,1.6-1,2.3c0,0-0.1,0.1-0.5,0c-1.5,1.3-2.5,2.6-3.5,4
	c0,0-0.1,0-0.5,0c-0.7,0.7-1.1,1.3-1.5,2c0,0-0.1,0.1-0.5,0c-2.3,2.1-4.2,4.3-6.2,6.5c0,0,0,0-0.2,0.1c-0.4,0.3-0.6,0.6-0.7,0.9
	c0,0,0,0-0.4,0c-0.9,0.8-1.4,1.6-2,2.4c0,0-0.1,0.1-0.5,0c-1.6,1.4-2.9,3-4.1,4.6c0,0,0,0-0.3,0.1c-0.4,0.4-0.6,0.6-0.7,0.9
	c0,0,0,0-0.4,0c-1.6,1.5-2.8,2.9-3.9,4.4c0,0-0.1,0.1-0.5,0c-1,0.8-1.6,1.6-2.2,2.5c0,0,0,0.1-0.2,0.1c-0.4,0.3-0.6,0.6-0.8,0.9
	c0,0,0,0.1-0.4,0c-0.9,0.8-1.5,1.6-2,2.5c0,0-0.1,0.1-0.5,0c-0.8,0.6-1.1,1.3-1.5,2c0,0-0.1,0.1-0.5,0c-1,0.8-1.6,1.7-2.1,2.6
	c0,0,0,0-0.3,0.1c-0.4,0.3-0.6,0.6-0.7,0.9c0,0,0,0-0.4,0c-0.9,0.8-1.5,1.6-2,2.4c0,0-0.1,0.1-0.5,0c-0.8,0.6-1.1,1.3-1.5,2
	c0,0-0.1,0.1-0.5,0c-1,0.8-1.5,1.7-2.1,2.6c0,0,0,0-0.3,0.1c-0.4,0.4-0.6,0.6-0.7,0.9c0,0,0,0-0.4,0c-0.9,0.8-1.5,1.6-2,2.4
	c0,0-0.1,0.1-0.5,0c-0.8,0.6-1.1,1.3-1.5,2c0,0-0.1,0.1-0.5,0c-1,0.8-1.5,1.7-2.1,2.6c0,0,0,0-0.3,0.1c-0.4,0.4-0.6,0.6-0.7,0.9
	c0,0,0,0-0.4,0c-0.9,0.8-1.5,1.6-2,2.4c0,0-0.1,0.1-0.5,0c-0.8,0.6-1.1,1.3-1.5,2c0,0-0.1,0.1-0.5,0c-1,0.8-1.5,1.7-2.1,2.6
	c0,0,0,0-0.3,0.1c-0.4,0.3-0.6,0.6-0.7,0.9c0,0,0,0-0.4,0c-0.9,0.8-1.5,1.6-2,2.4c0,0-0.1,0.1-0.5,0c-0.8,0.6-1.1,1.3-1.5,2
	c0,0-0.1,0.1-0.5,0c-0.8,0.6-1.1,1.3-1.5,2c0,0-0.1,0.1-0.5,0c-0.8,0.6-1.2,1.3-1.6,2c0,0-0.1,0.1-0.5,0c-0.8,0.6-1.1,1.3-1.5,2
	c0,0-0.1,0.1-0.5,0c-0.8,0.6-1.1,1.3-1.5,2c0,0-0.1,0-0.5,0c-0.8,0.6-1.1,1.3-1.5,2c0,0-0.1,0.1-0.6-0.1c-1.1,0-1.8,0.1-2.4,0.2
	c0,0-0.1-0.1,0-0.5c-0.6-0.8-1.3-1.1-2-1.5c0,0-0.1-0.1,0-0.5c-1.5-1.6-3-2.9-4.6-4.1c0,0,0,0-0.1-0.2c-0.3-0.4-0.6-0.6-0.9-0.8
	c0,0,0,0,0-0.4c-0.8-0.9-1.6-1.4-2.4-2c0,0-0.1-0.1,0-0.5c-0.6-0.8-1.3-1.1-2-1.5c0,0-0.1-0.1,0-0.5c-0.8-1-1.7-1.6-2.6-2.1
	c0,0,0,0-0.1-0.2c-0.3-0.4-0.6-0.6-0.9-0.8c0,0,0,0,0-0.4c-0.8-0.9-1.6-1.5-2.4-2c0,0-0.1-0.1,0-0.5c-0.6-0.8-1.3-1.1-2-1.5
	c0,0-0.1-0.1,0-0.5c-0.6-0.8-1.3-1.1-2-1.5c0,0,0-0.1,0-0.4c-0.5-0.6-1-0.9-1.5-1.2c0,0,0,0,0-0.4c-1.5-1.6-2.9-2.8-4.4-4
	c0,0-0.1-0.1,0-0.5c-0.6-0.8-1.3-1.1-2-1.5c0,0-0.1-0.1,0-0.6c0-1.1-0.2-1.7-0.4-2.3c0,0,0.1-0.2,0.5-0.1c1.7-1.4,2.9-3,4.2-4.5
	c0,0,0,0,0.3-0.1c0.4-0.4,0.6-0.7,0.8-1c0.1-0.3,0.3-0.6,1.1-0.9c0.6-0.5,0.8-0.8,1-1.1c0.1-0.3,0.2-0.6,0.9-1
	c0.7-0.5,0.9-0.8,1-1.1c0,0,0,0.1,0.3,0c1.1-1,1.9-2,2.7-3c0,0,0,0,0.3-0.1c0.4-0.4,0.6-0.7,0.8-1c0.1-0.3,0.2-0.6,1-0.9
	c0.7-0.5,0.8-0.8,1-1.1c0.1-0.3,0.2-0.6,0.9-1c0.7-0.5,0.9-0.8,1-1.1c0.1-0.3,0.3-0.6,1.1-0.8c1-0.7,1.5-1.4,1.9-2.1
	c0,0,0,0,0.2-0.1c0.4-0.4,0.6-0.7,0.8-1c0.1-0.3,0.2-0.6,1-0.9c0.6-0.5,0.8-0.8,1-1.1c0.1-0.3,0.2-0.6,0.9-1
	C121.5,102.5,121.7,102.2,121.9,101.9z"/>
<path class="st1" d="M250.9,126.3c1.3-0.3,2.7-0.3,4.5-0.3c0.4,0.7,0.4,1.5,0.4,2.6C254.3,128.2,252.6,127.4,250.9,126.3z"/>
<path class="st1" d="M243.6,118.9c4-0.4,6.9,2.2,7.3,6.7C248.5,123.8,246.1,121.5,243.6,118.9z"/>
<path class="st1" d="M235,110.4c4.6-0.9,5.4,2.9,6.9,6.3C239.6,114.9,237.3,112.8,235,110.4z"/>
<path class="st2" d="M193.2,96.9c1.6-2.1,3.5-4.4,5.8-6.4C197.4,92.7,195.4,94.8,193.2,96.9z"/>
<path class="st2" d="M179.9,110.3c0.9-1.4,2.1-2.8,3.7-4.3C182.6,107.4,181.4,108.8,179.9,110.3z"/>
<path class="st2" d="M185.2,104.9c0.9-1.5,2.2-3.1,3.7-4.4C188,102,186.8,103.4,185.2,104.9z"/>
<path class="st2" d="M98.6,132.9c1.4,0.9,2.8,2.1,4.3,3.7C101.5,135.7,100.1,134.4,98.6,132.9z"/>
<path class="st2" d="M100.6,123.1c-0.9,1.5-2.2,3-3.8,4.4C97.7,125.9,99,124.5,100.6,123.1z"/>
<path class="st2" d="M201.8,88.3c0.8-1.3,1.8-2.7,3.2-3.9C204.2,85.8,203.1,87,201.8,88.3z"/>
<path class="st2" d="M120,154.3c1.5,0.9,3,2.2,4.5,3.8C122.9,157.2,121.5,155.9,120,154.3z"/>
<path class="st1" d="M206.9,82.1c1.7,0.2,4.3-0.8,3.5,3c-1.1-0.3-1.9-0.9-3.1-1.9C206.9,82.6,206.9,82.3,206.9,82.1z"/>
<path class="st2" d="M138.6,85.1c-0.4,0.9-1.2,1.9-2.3,3C136.7,87.1,137.5,86.1,138.6,85.1z"/>
<path class="st3" d="M215.5,90.9c0.9,0.5,1.9,1.2,2.8,2.3C217.4,92.7,216.5,91.9,215.5,90.9z"/>
<path class="st2" d="M157.8,132.3c0.3-0.7,0.8-1.5,1.7-2.3C159.3,130.8,158.7,131.5,157.8,132.3z"/>
<path class="st2" d="M169.2,120.9c0.3-0.8,0.9-1.7,1.8-2.5C170.7,119.4,170.1,120.1,169.2,120.9z"/>
<path class="st2" d="M108.6,115.1c-0.5,0.9-1.3,1.9-2.4,2.9C106.6,117,107.5,116.1,108.6,115.1z"/>
<path class="st2" d="M173.8,116.3c0.2-0.7,0.8-1.6,1.7-2.4C175.2,114.7,174.7,115.5,173.8,116.3z"/>
<path class="st2" d="M145.2,144.9c0.3-0.8,0.9-1.7,1.8-2.5C146.7,143.3,146.1,144.1,145.2,144.9z"/>
<path class="st2" d="M108.6,142.9c0.7,0.3,1.5,0.8,2.4,1.7C110.2,144.4,109.4,143.8,108.6,142.9z"/>
<path class="st2" d="M112,146.3c0.8,0.3,1.7,0.9,2.4,1.8C113.6,147.8,112.8,147.2,112,146.3z"/>
<path class="st2" d="M149.8,140.3c0.3-0.7,0.8-1.5,1.7-2.3C151.3,138.7,150.7,139.5,149.8,140.3z"/>
<path class="st2" d="M189.8,100.3c0.3-0.7,0.8-1.5,1.7-2.3C191.3,98.7,190.7,99.5,189.8,100.3z"/>
<path class="st2" d="M177.1,112.9c0.3-0.8,0.9-1.7,1.8-2.4C178.7,111.4,178.1,112.1,177.1,112.9z"/>
<path class="st2" d="M153.2,136.9c0.3-0.8,0.9-1.7,1.8-2.5C154.7,135.4,154.1,136.1,153.2,136.9z"/>
<path class="st2" d="M141.8,148.3c0.3-0.7,0.8-1.5,1.7-2.3C143.3,146.7,142.6,147.5,141.8,148.3z"/>
<path class="st2" d="M116.6,150.9c0.7,0.3,1.5,0.8,2.4,1.7C118.2,152.4,117.4,151.8,116.6,150.9z"/>
<path class="st2" d="M148.6,75.1c-0.5,0.9-1.3,1.9-2.4,2.9C146.7,77,147.5,76.1,148.6,75.1z"/>
<path class="st2" d="M165.8,124.3c0.3-0.7,0.8-1.5,1.7-2.4C167.3,122.7,166.7,123.5,165.8,124.3z"/>
<path class="st2" d="M161.2,128.9c0.3-0.8,0.9-1.7,1.8-2.5C162.7,127.4,162.1,128.1,161.2,128.9z"/>
<path class="st2" d="M95.9,127.8c0.4,0.5,0.6,1.1,0.5,2.2C96.1,129.5,95.9,128.7,95.9,127.8z"/>
<path class="st2" d="M163.8,126.4c0.1-0.6,0.5-1.3,1.2-1.9C164.9,125.2,164.5,125.7,163.8,126.4z"/>
<path class="st2" d="M155.8,134.3c0.1-0.6,0.5-1.3,1.2-1.9C156.9,133.2,156.4,133.7,155.8,134.3z"/>
<path class="st2" d="M126.6,160.9c0.5-0.4,1.1-0.5,2.2-0.4C128.4,160.8,127.6,160.9,126.6,160.9z"/>
<path class="st3" d="M226.9,102.4c0.6,0.1,1.3,0.5,2,1.3C228.2,103.6,227.6,103.1,226.9,102.4z"/>
<path class="st3" d="M224.9,100.3c0.6,0.2,1.2,0.6,1.9,1.4C226.2,101.6,225.6,101.1,224.9,100.3z"/>
<path class="st2" d="M129.7,160.3c0.1-0.6,0.5-1.3,1.2-1.9C130.9,159.1,130.4,159.7,129.7,160.3z"/>
<path class="st2" d="M124.5,158.9c0.6,0.1,1.3,0.5,1.9,1.2C125.7,160,125.2,159.6,124.5,158.9z"/>
<path class="st2" d="M104.5,138.9c0.6,0.1,1.3,0.5,1.9,1.2C105.7,140,105.2,139.6,104.5,138.9z"/>
<path class="st2" d="M131.7,158.3c0.1-0.6,0.5-1.3,1.2-1.9C132.9,157.1,132.4,157.7,131.7,158.3z"/>
<path class="st2" d="M133.7,156.3c0.1-0.6,0.5-1.3,1.2-1.9C134.9,155.2,134.4,155.7,133.7,156.3z"/>
<path class="st3" d="M211.9,87.3c0.6,0.1,1.2,0.6,1.9,1.4C213.3,88.5,212.6,88.1,211.9,87.3z"/>
<path class="st2" d="M106.6,140.9c0.6,0.1,1.3,0.5,1.9,1.2C107.7,142,107.2,141.5,106.6,140.9z"/>
<path class="st2" d="M96.6,130.9c0.6,0.1,1.3,0.5,1.9,1.2C97.8,132,97.2,131.5,96.6,130.9z"/>
<path class="st2" d="M147.8,142.3c0.1-0.6,0.5-1.3,1.2-1.9C148.9,141.2,148.4,141.7,147.8,142.3z"/>
<path class="st2" d="M137.8,152.3c0.1-0.6,0.5-1.3,1.2-1.9C138.9,151.1,138.5,151.7,137.8,152.3z"/>
<path class="st2" d="M139.7,150.3c0.1-0.6,0.5-1.3,1.2-1.9C140.9,149.1,140.4,149.7,139.7,150.3z"/>
<path class="st2" d="M114.6,148.8c0.6,0.1,1.3,0.5,1.9,1.2C115.7,150,115.2,149.5,114.6,148.8z"/>
<path class="st1" d="M206.5,82.1c0.4,0.2,0.4,0.5,0.4,1c-0.3,0.5-0.5,0.8-1.1,1.2C205.8,83.7,206,82.9,206.5,82.1z"/>
<path class="st2" d="M171.8,118.3c0.1-0.6,0.5-1.3,1.2-1.9C172.9,117.2,172.4,117.7,171.8,118.3z"/>
<path class="st2" d="M116.6,107.1c-0.2,0.6-0.6,1.3-1.4,1.9C115.3,108.4,115.8,107.8,116.6,107.1z"/>
<path class="st2" d="M127.6,96.1c-0.2,0.6-0.6,1.2-1.4,1.9C126.3,97.4,126.8,96.8,127.6,96.1z"/>
<path class="st3" d="M229,104.3c0.6,0.2,1.2,0.6,1.9,1.4C230.3,105.5,229.7,105.1,229,104.3z"/>
<path class="st2" d="M171.6,52.1c-0.2,0.6-0.6,1.2-1.4,1.9C170.4,53.4,170.8,52.8,171.6,52.1z"/>
<path class="st2" d="M168.6,55.1c-0.2,0.6-0.6,1.3-1.4,2C167.4,56.4,167.8,55.8,168.6,55.1z"/>
<path class="st2" d="M163.6,60.1c-0.2,0.6-0.6,1.2-1.4,1.9C162.4,61.4,162.9,60.8,163.6,60.1z"/>
<path class="st2" d="M124.6,99c-0.2,0.6-0.6,1.3-1.4,2C123.3,100.4,123.8,99.8,124.6,99z"/>
<path class="st3" d="M223,98.3c0.6,0.2,1.2,0.6,1.9,1.4C224.2,99.6,223.6,99.1,223,98.3z"/>
<path class="st3" d="M220.9,96.3c0.6,0.2,1.2,0.6,1.9,1.4C222.3,97.5,221.6,97.1,220.9,96.3z"/>
<path class="st2" d="M160.6,63.1c-0.2,0.6-0.6,1.2-1.4,1.9C159.3,64.4,159.8,63.8,160.6,63.1z"/>
<path class="st2" d="M135.7,154.3c0.1-0.6,0.5-1.3,1.3-1.8C136.9,153.1,136.4,153.7,135.7,154.3z"/>
<path class="st2" d="M199.8,90.3c0.1-0.6,0.5-1.3,1.2-1.9C200.9,89.1,200.5,89.6,199.8,90.3z"/>
<path class="st2" d="M103,137.2c0.4,0,1,0.3,1.4,0.9C103.9,138.1,103.5,137.8,103,137.2z"/>
<path class="st3" d="M210.5,85.9c0.4,0,0.9,0.2,1.4,0.8C211.4,86.7,211,86.5,210.5,85.9z"/>
<path class="st3" d="M242,117.3c0.5,0,1,0.3,1.4,0.9C242.9,118.2,242.5,117.9,242,117.3z"/>
<path class="st3" d="M213.9,89.3c0.5,0,1,0.3,1.4,0.9C214.9,90.2,214.4,89.9,213.9,89.3z"/>
<path class="st3" d="M219.5,94.9c0.4,0,0.9,0.2,1.4,0.8C220.5,95.7,220,95.4,219.5,94.9z"/>
<path class="st3" d="M233.3,108.6c0.4,0,1,0.4,1.5,1C234.4,109.7,233.9,109.3,233.3,108.6z"/>
<path class="st3" d="M231,106.3c0.5,0,1,0.3,1.6,1C232.1,107.3,231.6,107,231,106.3z"/>
<path class="st2" d="M144.1,145.9c-0.1-0.2,0.1-0.5,0.5-0.9C144.7,145.3,144.6,145.6,144.1,145.9z"/>
<path class="st2" d="M160.2,129.9c-0.1-0.2,0.1-0.5,0.5-0.9C160.7,129.3,160.6,129.6,160.2,129.9z"/>
<path class="st2" d="M111,145.2c0.2-0.1,0.5,0.1,0.9,0.5C111.6,145.8,111.3,145.6,111,145.2z"/>
<path class="st2" d="M172.6,51c0.1,0.2-0.1,0.5-0.5,0.9C172,51.7,172.2,51.4,172.6,51z"/>
<path class="st2" d="M119,153.2c0.2-0.1,0.5,0.1,0.9,0.5C119.6,153.8,119.3,153.7,119,153.2z"/>
<path class="st2" d="M173.6,50.1c0.1,0.3-0.1,0.5-0.5,0.9C173,50.7,173.2,50.4,173.6,50.1z"/>
<path class="st2" d="M152.1,137.9c-0.1-0.2,0.1-0.5,0.5-0.9C152.7,137.3,152.6,137.6,152.1,137.9z"/>
<path class="st2" d="M151.6,72.1c0.1,0.2-0.1,0.5-0.5,0.9C151.1,72.7,151.2,72.4,151.6,72.1z"/>
<path class="st2" d="M131.7,92.1c0.1,0.2-0.1,0.5-0.5,0.9C131.1,92.7,131.2,92.4,131.7,92.1z"/>
<path class="st2" d="M133.6,90c0.1,0.2-0.1,0.5-0.5,0.9C133,90.7,133.2,90.4,133.6,90z"/>
<path class="st2" d="M135.6,88.1c0.1,0.2-0.1,0.5-0.5,0.9C135.1,88.7,135.2,88.4,135.6,88.1z"/>
<path class="st2" d="M139.6,84c0.1,0.2-0.1,0.5-0.5,0.9C139,84.7,139.2,84.4,139.6,84z"/>
<path class="st2" d="M141.6,82c0.1,0.2-0.1,0.6-0.5,0.9C141,82.7,141.2,82.4,141.6,82z"/>
<path class="st2" d="M143.6,80c0.1,0.2-0.1,0.5-0.5,0.9C143.1,80.7,143.2,80.4,143.6,80z"/>
<path class="st2" d="M145.6,78c0.1,0.2-0.1,0.5-0.5,0.9C145,78.7,145.2,78.4,145.6,78z"/>
<path class="st2" d="M149.6,74c0.1,0.2-0.1,0.5-0.5,0.9C149,74.7,149.2,74.4,149.6,74z"/>
<path class="st2" d="M130.6,93c0.1,0.2-0.1,0.5-0.5,0.9C130,93.7,130.2,93.4,130.6,93z"/>
<path class="st2" d="M152.6,71c0.1,0.2-0.1,0.5-0.5,0.9C152.1,71.7,152.2,71.4,152.6,71z"/>
<path class="st2" d="M153.6,70c0.1,0.2-0.1,0.5-0.5,0.9C153,70.7,153.2,70.4,153.6,70z"/>
<path class="st2" d="M154.6,69c0.1,0.2-0.1,0.5-0.5,0.9C154,69.7,154.2,69.4,154.6,69z"/>
<path class="st2" d="M155.6,68c0.1,0.2-0.1,0.5-0.5,0.9C155,68.7,155.2,68.4,155.6,68z"/>
<path class="st2" d="M157.6,66c0.1,0.2-0.1,0.6-0.5,1C157,66.7,157.1,66.4,157.6,66z"/>
<path class="st2" d="M161.6,62c0.1,0.2-0.1,0.5-0.5,0.9C161,62.7,161.2,62.4,161.6,62z"/>
<path class="st2" d="M165.6,58c0.1,0.2-0.1,0.6-0.5,0.9C165,58.7,165.2,58.4,165.6,58z"/>
<path class="st2" d="M169.6,54c0.1,0.2-0.1,0.5-0.5,0.9C169,54.7,169.2,54.4,169.6,54z"/>
<path class="st2" d="M184.1,105.9c-0.1-0.2,0.1-0.5,0.5-0.9C184.7,105.3,184.6,105.6,184.1,105.9z"/>
<path class="st2" d="M168.1,121.9c-0.1-0.2,0.1-0.5,0.5-0.9C168.7,121.3,168.6,121.6,168.1,121.9z"/>
<path class="st2" d="M103.7,120.1c0.1,0.2-0.1,0.5-0.5,0.9C103.1,120.7,103.2,120.4,103.7,120.1z"/>
<path class="st2" d="M105.6,118c0.1,0.3-0.1,0.6-0.5,0.9C105,118.7,105.1,118.4,105.6,118z"/>
<path class="st2" d="M109.6,114c0.1,0.2-0.1,0.5-0.5,0.9C109,114.7,109.2,114.4,109.6,114z"/>
<path class="st2" d="M176.1,113.9c-0.1-0.2,0.1-0.5,0.5-0.8C176.7,113.2,176.5,113.5,176.1,113.9z"/>
<path class="st2" d="M111.6,112c0.1,0.2-0.1,0.5-0.5,0.9C111,112.7,111.2,112.4,111.6,112z"/>
<path class="st2" d="M113.6,109.9c0.1,0.3-0.1,0.6-0.6,1C112.9,110.7,113.1,110.3,113.6,109.9z"/>
<path class="st2" d="M117.6,106c0.1,0.2-0.1,0.5-0.5,0.9C117,106.7,117.2,106.4,117.6,106z"/>
<path class="st2" d="M101.6,122c0.1,0.2-0.1,0.5-0.5,0.9C101,122.7,101.2,122.4,101.6,122z"/>
<path class="st2" d="M119.7,104.1c0.1,0.2-0.1,0.5-0.5,0.9C119.1,104.7,119.2,104.4,119.7,104.1z"/>
<path class="st2" d="M121.6,101.9c0.1,0.3-0.1,0.6-0.6,1C120.9,102.7,121.1,102.3,121.6,101.9z"/>
<path class="st2" d="M125.6,98c0.1,0.2-0.1,0.5-0.5,0.9C125,98.7,125.2,98.4,125.6,98z"/>
<path class="st2" d="M192.1,97.9c-0.1-0.2,0.1-0.5,0.5-0.9C192.7,97.3,192.6,97.6,192.1,97.9z"/>
<path class="st2" d="M128.6,95c0.1,0.2-0.1,0.5-0.5,0.9C128,95.7,128.2,95.4,128.6,95z"/>
<path class="st2" d="M129.6,94c0.1,0.2-0.1,0.5-0.5,0.9C129,94.7,129.2,94.4,129.6,94z"/>
<path class="st3" d="M218.6,93.9c0.2-0.1,0.5,0,0.7,0.3C219,94.4,218.8,94.2,218.6,93.9z"/>
</svg>
